<svg xmlns="http://www.w3.org/2000/svg" width="101" height="22" fill="none"><g clip-path="url(#a)"><path fill="#007AFF" d="M28.309 15.925c-.58-.238-1.008-.548-1.343-.953a2.3 2.3 0 0 1-.489-1.405v-.453c0-.048.031-.095.062-.12a.27.27 0 0 1 .152-.047h2.594c.061 0 .122.024.153.048.03.024.06.071.06.119v.333c0 .239.062.43.214.549a.78.78 0 0 0 .55.214.87.87 0 0 0 .549-.19c.152-.12.213-.31.213-.501 0-.214-.122-.429-.335-.596-.214-.19-.672-.452-1.343-.834-.61-.357-1.13-.667-1.526-.929a4.8 4.8 0 0 1-1.037-1.024c-.306-.405-.428-.882-.428-1.43s.153-1.048.489-1.477c.305-.429.763-.762 1.342-1 .58-.239 1.252-.358 1.984-.358q1.144 0 2.014.357c.58.239 1.038.572 1.343 1.001s.488.93.488 1.501v.357c0 .048-.03.096-.061.12a.27.27 0 0 1-.153.047h-2.594a.27.27 0 0 1-.152-.047.16.16 0 0 1-.061-.12v-.405a.67.67 0 0 0-.214-.524.78.78 0 0 0-.549-.214.78.78 0 0 0-.55.214.8.8 0 0 0-.213.548c0 .239.092.453.305.644.214.19.641.476 1.282.834a30 30 0 0 1 1.77 1.095c.396.286.702.596.946.93.213.333.335.738.335 1.215 0 .881-.366 1.572-1.068 2.073-.701.524-1.617.762-2.776.762a4.7 4.7 0 0 1-1.954-.334m7.112.189a.16.16 0 0 1-.06-.12V6.156c0-.048.03-.095.06-.12a.27.27 0 0 1 .153-.047h2.655a.27.27 0 0 1 .152.048c.03.024.061.071.061.12v9.839c0 .048-.03.095-.06.119a.27.27 0 0 1-.153.048h-2.655a.27.27 0 0 1-.153-.048"/><path fill="#12D89B" d="M40.18 7.61c-.305-.239-.457-.548-.457-.906 0-.381.152-.69.457-.905.306-.238.672-.358 1.16-.358.458 0 .854.12 1.16.358s.457.548.457.905c0 .358-.152.667-.457.906-.306.238-.702.357-1.16.357-.488 0-.855-.12-1.16-.357m-.305 8.505a.16.16 0 0 1-.06-.119V8.801c0-.048.03-.096.06-.12a.27.27 0 0 1 .153-.047h2.655c.06 0 .122.024.152.048.03.023.061.071.061.119v7.171c0 .048-.03.095-.06.12a.27.27 0 0 1-.153.047h-2.655c-.061.024-.092 0-.153-.024"/><path fill="#007AFF" d="M48.663 6.012a.27.27 0 0 1 .153-.047h2.654a.27.27 0 0 1 .153.047c.03.024.061.072.061.12v9.84c0 .047-.03.095-.06.119a.27.27 0 0 1-.154.047h-2.654a.27.27 0 0 1-.153-.047.16.16 0 0 1-.061-.12v-.286c0-.023 0-.047-.03-.047-.031 0-.062 0-.062.024-.396.405-.976.62-1.708.62-1.71 0-2.564-.835-2.564-2.526V11.04c0-1.668.855-2.526 2.564-2.526.732 0 1.281.215 1.709.643l.06.048c.031 0 .031-.024.031-.048V6.155c0-.047 0-.095.061-.143m-.244 8.03c.122-.12.183-.262.183-.477V11.23a.65.65 0 0 0-.183-.476c-.122-.12-.275-.167-.488-.167a.62.62 0 0 0-.458.167c-.122.119-.153.262-.153.476v2.335c0 .19.061.357.153.477a.62.62 0 0 0 .458.166c.213 0 .366-.047.488-.166m12.021-1.023a.27.27 0 0 1-.152.047h-4.059q-.091 0-.091.072v.429c0 .19.06.357.183.476.122.12.274.167.488.167a.64.64 0 0 0 .427-.143.58.58 0 0 0 .214-.357c0-.096.091-.167.244-.167l2.563.119a.27.27 0 0 1 .153.047.18.18 0 0 1 .06.143q-.182 2.43-3.661 2.43c-1.19 0-2.106-.214-2.747-.666-.67-.453-.976-1.049-.976-1.859v-2.716c0-.762.336-1.358 1.007-1.834.671-.453 1.587-.691 2.746-.691s2.075.238 2.747.69c.671.453.976 1.073.976 1.835V12.9c-.06.024-.091.072-.122.12m-4.15-2.264c-.122.12-.183.262-.183.477v.452q0 .072.092.072h1.098q.092 0 .092-.072v-.452a.6.6 0 0 0-.183-.453.64.64 0 0 0-.458-.19.62.62 0 0 0-.458.166m6.287 4.884c-.671-.43-1.007-.977-1.007-1.668v-.095c0-.048.03-.096.061-.12a.27.27 0 0 1 .153-.047h2.502a.27.27 0 0 1 .153.048c.03.023.06.071.06.119v.023c0 .167.092.31.245.406a1 1 0 0 0 .519.143.6.6 0 0 0 .396-.12.4.4 0 0 0 .153-.31c0-.166-.092-.31-.305-.404-.214-.096-.55-.191-1.007-.31l-.397-.095c-1.617-.43-2.41-1.192-2.41-2.335 0-.739.305-1.31.945-1.74.641-.428 1.465-.643 2.533-.643s1.953.238 2.594.691.977 1.072.977 1.835c0 .095-.062.166-.214.166h-2.41a.27.27 0 0 1-.153-.047.16.16 0 0 1-.062-.12V10.9a.52.52 0 0 0-.152-.382.72.72 0 0 0-.458-.143c-.183 0-.335.048-.427.143a.5.5 0 0 0-.153.358q0 .32.367.5c.244.12.61.238 1.037.357.55.143 1.007.31 1.404.453.397.167.732.381 1.037.691.275.286.428.667.428 1.12q0 1.036-1.007 1.644c-.672.405-1.557.595-2.655.595-1.16.048-2.075-.166-2.747-.595"/><path fill="#384249" d="M74.939 6.012a.27.27 0 0 1 .153-.047H76.8a.27.27 0 0 1 .153.047c.03.024.061.072.061.12v9.84c0 .047-.03.095-.061.119a.27.27 0 0 1-.153.047h-1.709a.27.27 0 0 1-.152-.047.16.16 0 0 1-.061-.12v-.166c0-.024 0-.048-.03-.048-.031 0-.062 0-.062.024-.457.333-1.007.5-1.678.5-.824 0-1.465-.214-1.953-.643-.458-.429-.702-1-.702-1.716v-2.954c0-.738.244-1.31.702-1.74.458-.428 1.099-.619 1.922-.619.275 0 .58.048.885.12.306.071.58.214.794.405.03.023.06.023.06.023.031 0 .031-.023.031-.047V6.155zm-.427 8.578a.83.83 0 0 0 .366-.596v-3.097a1 1 0 0 0-.366-.596 1.3 1.3 0 0 0-.733-.214c-.335 0-.64.095-.824.286a1.03 1.03 0 0 0-.305.738v2.692c0 .31.092.572.305.739.214.167.489.286.824.286.275 0 .55-.072.733-.238m4.791 1.048c-.58-.429-.885-1-.885-1.74v-2.93c0-.715.305-1.286.885-1.715.61-.43 1.404-.644 2.41-.644 1.038 0 1.832.215 2.442.644s.885 1 .885 1.715v2.93c0 .74-.305 1.311-.885 1.74s-1.404.643-2.441.643c-1.007 0-1.8-.214-2.411-.643m3.296-1.12a.95.95 0 0 0 .335-.739v-2.692a.95.95 0 0 0-.335-.738c-.214-.191-.489-.286-.855-.286q-.548 0-.824.286c-.213.19-.305.428-.305.738v2.669c0 .31.092.571.305.738q.321.285.824.286c.336 0 .641-.071.855-.262m4.575 1.12c-.58-.429-.885-1-.885-1.74v-2.93c0-.715.305-1.286.885-1.715s1.404-.644 2.41-.644c1.008 0 1.832.215 2.412.644.61.429.885.953.885 1.596v.214a.17.17 0 0 1-.062.12.27.27 0 0 1-.152.047l-1.709.048c-.153 0-.214-.048-.214-.167v-.143c0-.238-.122-.453-.335-.643s-.489-.262-.824-.262q-.504 0-.824.286c-.214.19-.305.452-.305.738v2.693c0 .31.091.547.305.738q.32.285.824.286c.335 0 .61-.095.824-.262.213-.19.335-.405.335-.643v-.143c0-.048.03-.096.061-.12a.27.27 0 0 1 .153-.047l1.709.024a.27.27 0 0 1 .152.047.16.16 0 0 1 .061.12v.261c0 .668-.305 1.216-.884 1.62-.61.406-1.404.62-2.411.62s-1.831-.214-2.411-.643m7.508.047c-.58-.357-.885-.858-.885-1.5v-.096c0-.048.03-.096.06-.12a.27.27 0 0 1 .153-.047h1.618a.27.27 0 0 1 .152.048c.03.023.061.071.061.119v.071c0 .239.123.43.336.572.214.143.519.238.854.238.336 0 .58-.071.763-.214a.68.68 0 0 0 .275-.548.6.6 0 0 0-.244-.477 2.2 2.2 0 0 0-.519-.31 14 14 0 0 0-1.007-.333c-.702-.214-1.282-.476-1.74-.81s-.67-.81-.67-1.477.274-1.215.823-1.596c.55-.382 1.313-.572 2.258-.572.977 0 1.74.19 2.29.595.579.405.854.954.854 1.62a.17.17 0 0 1-.061.12.27.27 0 0 1-.153.047h-1.556a.27.27 0 0 1-.153-.047.16.16 0 0 1-.06-.12v-.095a.64.64 0 0 0-.306-.572c-.214-.166-.458-.238-.763-.238-.336 0-.58.072-.763.239q-.275.25-.275.571c0 .19.062.334.214.477.153.119.305.214.519.31.183.071.488.19.946.333.519.167.946.334 1.312.477.366.166.671.38.946.69.275.286.397.668.397 1.096 0 .644-.305 1.168-.885 1.55q-.87.57-2.38.57c-1.038 0-1.8-.19-2.411-.57"/><path fill="#12D89B" d="M18.606 19.88c-.275 0-.58-.072-.885-.215l-6.287-2.835.458-.62 6.317 2.835c.244.12.458.143.58.072.122-.048.213-.214.213-.429l.03-10.507c0-.595-.579-1.382-1.25-1.691L6.064 1.248c-.245-.12-.458-.143-.58-.095s-.214.214-.214.429l-.03 6.48h-.916l.03-6.48c0-.477.245-.858.672-1.049s.977-.166 1.495.072L18.24 5.894c.946.429 1.71 1.453 1.71 2.311l-.031 10.507c0 .477-.244.858-.672 1.048a1.9 1.9 0 0 1-.64.12"/><path fill="#339EFF" d="M15.77 21.309c-.275 0-.58-.072-.885-.215l-3.449-1.548.458-.62 3.448 1.549c.244.119.458.143.58.071.122-.047.214-.214.214-.428l.03-10.484c0-.595-.58-1.382-1.25-1.691L3.196 2.677c-.213-.095-.458-.143-.58-.071-.122.048-.183.214-.213.429v4.431h-.916V3.035c0-.477.244-.858.672-1.049.427-.19.976-.166 1.495.072l11.718 5.29c.946.428 1.709 1.452 1.709 2.31l-.03 10.507a1.1 1.1 0 0 1-.672 1.048 1.7 1.7 0 0 1-.61.096"/><path fill="#339EFF" d="m11.436 19.568-8.27-3.74c-.946-.43-1.709-1.43-1.709-2.288l.03-6.075h.916l-.03 6.075c0 .596.58 1.382 1.25 1.668l8.27 3.74z"/><path fill="#007AFF" d="M11.313 9.633 1.548 5.225c-.671-.31-1.22-.071-1.22.548l-.031 8.744c0 .62.55 1.358 1.22 1.644l9.766 4.408c.67.31 1.22.071 1.22-.548l.03-8.744c0-.596-.549-1.334-1.22-1.644M7.102 14.23l-1.282.405-.854.286c-.092.024-.244.024-.336-.048-.275-.119-.55-.429-.55-.738V10.8c0-.286.275-.357.55-.238a.7.7 0 0 1 .336.286l.854 1.048 1.282 1.573c.244.333.244.667 0 .762"/></g><defs><clipPath id="a"><path fill="#fff" d="M.297.414h100V21.31h-100z"/></clipPath></defs></svg>